<svg width="41" height="41" viewBox="0 0 41 41" fill="none" xmlns="http://www.w3.org/2000/svg">
<path d="M5.89283 37.658H34.3301C34.8208 37.658 35.2185 37.2602 35.2185 36.7696V4.48296C35.2185 3.99234 34.8208 3.5946 34.3301 3.5946H5.89275C5.40213 3.5946 5.00439 3.99234 5.0044 4.48296L5.00447 36.7696C5.00447 37.2602 5.4022 37.658 5.89283 37.658Z" fill="#1A2557" stroke="#1A2557" stroke-width="0.888356"/>
<path d="M7.16919 37.658H33.4022C33.8928 37.658 34.2905 37.2602 34.2905 36.7696V5.47612C34.2905 4.9855 33.8928 4.58777 33.4022 4.58777H7.16912C6.67849 4.58777 6.28076 4.9855 6.28076 5.47613L6.28083 36.7696C6.28083 37.2602 6.67856 37.658 7.16919 37.658Z" fill="#F2E3CB"/>
<path d="M6.11474 38.0987H31.8741C32.3647 38.0987 32.7625 37.7009 32.7625 37.2103V6.97625C32.7625 6.48562 32.3647 6.08789 31.8741 6.08789H6.11468C5.62405 6.08789 5.22632 6.48562 5.22632 6.97625L5.22639 37.2103C5.22639 37.7009 5.62412 38.0987 6.11474 38.0987Z" fill="#0A139B" stroke="#1A2557" stroke-width="1.33253"/>
<path d="M24.4666 16.3907H13.078C12.0967 16.3907 11.3013 17.1862 11.3013 18.1675V24.8467C11.3013 25.828 12.0967 26.6234 13.078 26.6234H24.4666C25.4479 26.6234 26.2433 25.828 26.2433 24.8467V18.1675C26.2433 17.1862 25.4479 16.3907 24.4666 16.3907Z" fill="#FCF9F5" stroke="#1A2557" stroke-width="1.33253"/>
<path d="M13.5505 19.3684C13.2564 19.3684 13.0179 19.6068 13.0179 19.901C13.0179 20.1952 13.2564 20.4336 13.5505 20.4336V19.3684ZM23.9178 20.4336C24.212 20.4336 24.4505 20.1952 24.4505 19.901C24.4505 19.6068 24.212 19.3684 23.9178 19.3684V20.4336ZM13.5505 22.141C13.2564 22.141 13.0179 22.3795 13.0179 22.6736C13.0179 22.9678 13.2564 23.2063 13.5505 23.2063V22.141ZM23.9178 23.2063C24.212 23.2063 24.4505 22.9678 24.4505 22.6736C24.4505 22.3795 24.212 22.141 23.9178 22.141V23.2063ZM13.5505 20.4336H23.9178V19.3684H13.5505V20.4336ZM13.5505 23.2063H23.9178V22.141H13.5505V23.2063Z" fill="#1A2557"/>
<path d="M14.5707 5.31812H10.9271C10.7431 5.31812 10.594 5.46726 10.594 5.65125V12.1692C10.594 12.4807 10.9833 12.6218 11.1829 12.3827L12.6117 10.6705C12.7449 10.511 12.9901 10.511 13.1233 10.6705L14.3149 12.0984C14.5145 12.3375 14.9038 12.1964 14.9038 11.885V5.65125C14.9038 5.46726 14.7547 5.31812 14.5707 5.31812Z" fill="#AE3028" stroke="#1A2557" stroke-width="0.444178"/>
</svg>
