<svg width="42" height="42" viewBox="0 0 42 42" fill="none" xmlns="http://www.w3.org/2000/svg">
<rect width="42" height="42" rx="4" fill="#1A2557"/>
<path d="M31.4992 39.712C30.3425 39.712 29.2888 39.5309 28.338 39.1685C27.3873 38.8062 26.5713 38.2779 25.8899 37.5835C25.2086 36.8891 24.6778 36.0362 24.2975 35.0247C23.933 33.9982 23.7508 32.8283 23.7508 31.5149C23.7508 30.2016 23.9568 29.0392 24.3688 28.0278C24.7966 27.0013 25.367 26.1408 26.0801 25.4464C26.7931 24.752 27.625 24.2236 28.5757 23.8613C29.5265 23.499 30.5406 23.3179 31.6181 23.3179C32.2994 23.3179 32.9095 23.3632 33.4482 23.4537C34.0028 23.5443 34.4782 23.65 34.8743 23.7707C35.2863 23.8915 35.619 24.0123 35.8726 24.133C36.1261 24.2538 36.3004 24.3444 36.3955 24.4048L35.73 26.2163C35.5873 26.1257 35.3814 26.0276 35.112 25.9219C34.8426 25.8162 34.5336 25.7106 34.185 25.6049C33.8523 25.4992 33.4799 25.4162 33.0679 25.3558C32.6718 25.2803 32.2677 25.2426 31.8557 25.2426C30.9842 25.2426 30.1999 25.386 29.5027 25.6728C28.8055 25.9597 28.2113 26.3748 27.7201 26.9182C27.2289 27.4617 26.8486 28.1259 26.5792 28.9109C26.3257 29.6808 26.1989 30.5488 26.1989 31.5149C26.1989 32.4509 26.3098 33.3038 26.5317 34.0737C26.7694 34.8436 27.118 35.5078 27.5775 36.0663C28.037 36.6098 28.6074 37.0325 29.2888 37.3344C29.986 37.6363 30.7941 37.7873 31.7131 37.7873C32.7748 37.7873 33.6542 37.6816 34.3514 37.4703C35.0486 37.2589 35.5715 37.0702 35.9201 36.9042L36.5143 38.7157C36.4034 38.7912 36.2053 38.8893 35.9201 39.01C35.6349 39.1157 35.2784 39.2214 34.8505 39.3271C34.4227 39.4327 33.9236 39.5233 33.3531 39.5988C32.7827 39.6743 32.1647 39.712 31.4992 39.712Z" fill="#F2E3CB"/>
<path d="M18.2552 38.9011C17.9877 38.2265 17.736 37.5669 17.4999 36.9222C17.2639 36.2626 17.02 35.5955 16.7682 34.9209H9.35678L7.86977 38.9011H5.48584C6.11526 37.252 6.70534 35.7304 7.25609 34.3363C7.80683 32.9271 8.34184 31.5929 8.86111 30.3336C9.39612 29.0744 9.92326 27.8751 10.4425 26.7357C10.9618 25.5814 11.5047 24.4421 12.0712 23.3177H14.1719C14.7383 24.4421 15.2812 25.5814 15.8005 26.7357C16.3198 27.8751 16.839 29.0744 17.3583 30.3336C17.8933 31.5929 18.4362 32.9271 18.9869 34.3363C19.5377 35.7304 20.1278 37.252 20.7572 38.9011H18.2552ZM16.1073 33.122C15.6038 31.8177 15.1003 30.5585 14.5967 29.3442C14.1089 28.1149 13.5975 26.9381 13.0625 25.8138C12.5118 26.9381 11.9846 28.1149 11.4811 29.3442C10.9933 30.5585 10.5055 31.8177 10.0177 33.122H16.1073Z" fill="#F2E3CB"/>
<path d="M24.0737 13.427C24.4007 12.7058 24.848 11.8697 25.4159 10.9189C25.9837 9.95176 26.6203 8.95999 27.3258 7.94363C28.0485 6.92727 28.8142 5.9273 29.6229 4.94373C30.4489 3.96016 31.2748 3.07494 32.1007 2.28809H34.3978V13.1074H36.5143V14.9762H34.3978V19.3285H32.0749V14.9762H24.0737V13.427ZM32.0749 4.99291C31.5587 5.51748 31.0339 6.10763 30.5005 6.76334C29.9843 7.40266 29.4767 8.07477 28.9777 8.77967C28.4787 9.48456 28.0055 10.2058 27.5581 10.9435C27.1279 11.6812 26.7408 12.4025 26.3967 13.1074H32.0749V4.99291Z" fill="#F2E3CB"/>
<path d="M15.0212 12.5471C15.2861 12.8626 15.6172 13.2805 16.0145 13.8009C16.4283 14.3056 16.8505 14.8734 17.2809 15.5042C17.7113 16.1193 18.1334 16.7659 18.5473 17.4441C18.9777 18.1222 19.3419 18.7767 19.6398 19.4076H17.0077C16.6766 18.8083 16.3124 18.2011 15.9151 17.586C15.5344 16.9709 15.1454 16.3874 14.7481 15.8354C14.3508 15.2677 13.9535 14.7393 13.5562 14.2504C13.1754 13.7615 12.8278 13.3357 12.5133 12.973C12.298 12.9887 12.0746 12.9966 11.8428 12.9966C11.6276 12.9966 11.4041 12.9966 11.1724 12.9966H9.01203V19.4076H6.60339V3.25006C7.28212 3.09235 8.03533 2.98984 8.86304 2.94253C9.70731 2.87944 10.4771 2.8479 11.1724 2.8479C13.5893 2.8479 15.4268 3.28161 16.6849 4.14902C17.9596 5.01643 18.5969 6.30966 18.5969 8.02872C18.5969 9.11692 18.2907 10.0474 17.6782 10.8202C17.0822 11.593 16.1966 12.1686 15.0212 12.5471ZM11.371 4.85872C10.3446 4.85872 9.55832 4.88238 9.01203 4.92969V11.1041H10.7254C11.5531 11.1041 12.298 11.0647 12.9602 10.9858C13.6224 10.9069 14.1769 10.7571 14.6239 10.5363C15.0874 10.3155 15.4433 10.008 15.6917 9.61371C15.94 9.20366 16.0641 8.66745 16.0641 8.00506C16.0641 7.38999 15.94 6.87742 15.6917 6.46737C15.4433 6.05733 15.104 5.73402 14.6736 5.49745C14.2597 5.26088 13.7631 5.09529 13.1837 5.00066C12.6209 4.90603 12.0166 4.85872 11.371 4.85872Z" fill="#F2E3CB"/>
</svg>
